<?xml version="1.0" encoding="utf-8"?>
<!-- Generator: Adobe Illustrator 24.1.2, SVG Export Plug-In . SVG Version: 6.00 Build 0)  -->
<svg version="1.1" id="레이어_1" xmlns="http://www.w3.org/2000/svg" xmlns:xlink="http://www.w3.org/1999/xlink" x="0px"
	 y="0px" viewBox="0 0 22.6 66.8" style="enable-background:new 0 0 22.6 66.8;" xml:space="preserve">
<style type="text/css">
	.st0{clip-path:url(#SVGID_2_);}
	.st1{fill:none;stroke:#000000;stroke-width:2;stroke-miterlimit:10;}
	.st2{clip-path:url(#SVGID_4_);}
	.st3{clip-path:url(#SVGID_6_);}
	.st4{clip-path:url(#SVGID_8_);}
</style>
<g id="그룹_342" transform="translate(-17 -202)">
	<g id="그룹_329" transform="translate(17 202)">
		<g id="그룹_330">
			<g>
				<g>
					<defs>
						<path id="SVGID_1_" d="M7.4,1.1h7.7c2.5,0,4.5,2,4.5,4.5v7.7c0,2.5-2,4.5-4.5,4.5H7.4c-2.5,0-4.5-2-4.5-4.5V5.6
							C2.9,3.1,4.9,1.1,7.4,1.1z"/>
					</defs>
					<clipPath id="SVGID_2_">
						<use xlink:href="#SVGID_1_"  style="overflow:visible;"/>
					</clipPath>
					<g id="그룹_329-2" class="st0">
						<path id="패스_1058" class="st1" d="M21.2,3.1l-9,8.2c-0.5,0.5-1.3,0.5-1.8,0l-9-8.2C0.9,2.7,0.9,2,1.3,1.6l0.1-0.1l9-8.2
							c0.5-0.5,1.3-0.5,1.8,0l9,8.2c0.5,0.4,0.5,1.1,0.1,1.6C21.3,3.1,21.3,3.1,21.2,3.1z"/>
					</g>
				</g>
			</g>
		</g>
		<g id="그룹_332">
			<g>
				<g>
					<defs>
						<rect id="SVGID_3_" y="-8" width="22.6" height="26.9"/>
					</defs>
					<clipPath id="SVGID_4_">
						<use xlink:href="#SVGID_3_"  style="overflow:visible;"/>
					</clipPath>
					<g id="그룹_331" class="st2">
						<path id="사각형_336" class="st1" d="M7.4,1.1h7.7c2.5,0,4.5,2,4.5,4.5v7.7c0,2.5-2,4.5-4.5,4.5H7.4c-2.5,0-4.5-2-4.5-4.5
							V5.6C2.9,3.1,4.9,1.1,7.4,1.1z"/>
					</g>
				</g>
			</g>
		</g>
	</g>
	<g id="그룹_330-2" transform="translate(19 234)">
		<g>
			<g>
				<defs>
					<rect id="SVGID_5_" y="-8" width="18.8" height="18.8"/>
				</defs>
				<clipPath id="SVGID_6_">
					<use xlink:href="#SVGID_5_"  style="overflow:visible;"/>
				</clipPath>
				<g id="그룹_334" class="st3">
					<path id="사각형_338" class="st1" d="M5.5-7h7.7c2.5,0,4.5,2,4.5,4.5v7.7c0,2.5-2,4.5-4.5,4.5H5.5C3,9.7,1,7.7,1,5.2v-7.7
						C1-5,3-7,5.5-7z"/>
					<circle id="타원_2" cx="13.7" cy="-3.3" r="1.4"/>
					<path id="패스_1059" class="st1" d="M12.5,1.3c0,1.7-1.4,3.2-3.2,3.2S6.2,3.1,6.2,1.3s1.4-3.2,3.2-3.2l0,0
						C11.1-1.8,12.5-0.4,12.5,1.3L12.5,1.3z"/>
				</g>
			</g>
		</g>
	</g>
	<g id="그룹_341" transform="translate(19 257)">
		<g>
			<g>
				<defs>
					<rect id="SVGID_7_" y="-8" width="18.9" height="19.9"/>
				</defs>
				<clipPath id="SVGID_8_">
					<use xlink:href="#SVGID_7_"  style="overflow:visible;"/>
				</clipPath>
				<g id="그룹_340" transform="translate(0 0)" class="st4">
					<path id="패스_1066" class="st1" d="M17.8,3.5l-7-9.8c-0.4-0.7-1.4-1-2.1-0.6C8.5-6.8,8.3-6.6,8.1-6.4l-7,9.8
						c-0.6,1.2,0.6,2.2,2,1.8l3.5-0.8v4.2c0,1.3,1.1,2.3,2.4,2.2h0.8c1.3,0,2.3-0.9,2.4-2.2V4.4l3.5,0.9C17.1,5.7,18.4,4.7,17.8,3.5
						z"/>
				</g>
			</g>
		</g>
	</g>
</g>
</svg>
